<svg width="1602" height="660" viewBox="0 0 1602 660" fill="none" xmlns="http://www.w3.org/2000/svg">
    <path
       d="m 79,305 c 15.782184,33.9658 69.5972,7.94307 99.06536,1.74756 22.54498,-4.11285 69.42005,-39.91454 71.5332,-27.77363 -29.32679,46.98739 -56.63782,96.65284 -93.92726,137.59321 -40.7484,1.67764 -120.465881,15.97997 -88.238595,73.95816 37.129265,29.46006 69.925865,-25.92538 92.178965,-51.00713 44.03685,-20.00257 97.60228,-22.60812 141.19464,-48.89204 21.85853,-9.50021 50.63945,-28.77133 23.66557,4.19634 -25.579,25.73191 3.76523,61.51422 28.13013,28.952 44.5397,-29.36132 84.91176,-67.21654 134.25139,-88.16019 40.59669,-3.70492 16.4173,-41.34576 -9.65679,-16.5153 -28.67352,21.26392 -34.94018,6.8296 -10.83558,-15.31804 C 501.60195,265.49837 550.79665,245.56595 595,220 c -24.28785,43.45268 -32.5331,106.16376 -86.67327,121.87914 -80.44037,47.00557 -169.45305,105.64382 -194.30665,201.27839 -9.16154,31.94803 -3.43129,91.23583 42.56961,84.41602 60.82568,-14.10257 96.35757,-73.93518 124.21225,-125.04732 27.38932,-54.73829 50.08512,-111.96981 78.10315,-166.26311 16.70624,-6.72549 78.97804,-54.5349 49.64801,-12.08685 -28.67079,38.31387 10.63907,81.45311 32.9183,27.88794 14.8225,-22.39711 49.27374,-61.69816 65.48295,-59.48193 -10.19658,14.63476 -46.60338,70.07206 -4.91868,51.57135 26.62611,-19.76732 78.66265,-61.95949 95.17162,-58.85937 C 780.58836,307.91596 751.06046,365.2921 803,361 c -38.80662,35.72475 22.19057,23.65627 36.57657,3.06847 32.45979,-25.91543 72.76322,-39.85028 105.65834,-64.49694 13.20379,-14.09912 79.49129,-54.72292 40.70709,-17.2 -18.77894,26.232 -80.07032,75.15143 -44.88086,102.7642 45.38251,-10.75627 83.96226,-45.19723 110.76766,-82.60464 34.4343,-32.81059 -5.5457,-90.26525 50.177,-103.40748 13.4021,-17.21615 82.8817,-38.32932 50.7047,-53.45491 -36.7816,7.93094 -69.5646,64.05919 -103.1349,53.33594 -32.0361,-29.17671 -81.91021,-30.22428 -121.57481,-19.46143 -26.49236,36.31055 43.88931,1.12882 62.84768,10.59455 34.91543,-0.47637 75.28123,30.27519 23.65233,45.23067 -29.70369,14.04176 -106.28999,68.82983 -101.74269,57.97733 35.48928,-8.03389 -5.08272,-59.37593 -2.55575,-30.11792 -10.11218,25.56868 -55.16517,49.75994 -85.20236,65.5669 -22.6095,15.57054 -48.46519,17.05821 -21.44796,-11.57318 6.17789,-20.37559 52.58802,-66.8981 3.36262,-59.10716 -29.05737,5.28566 -68.82617,39.98545 -82.77258,42.53933 29.65685,-55.50236 -43.2639,-28.51221 -59.38819,-1.46726 -13.89885,13.27897 -56.00892,70.67055 -33.2902,22.38511 1.11055,-21.28145 54.77354,-74.24929 13.33044,-73.6173 -4.48546,28.21868 -67.25834,66.96969 -70.03396,51.95398 23.15617,-36.89088 30.46127,-88.21713 70.51171,-111.58986 31.97005,-22.98341 71.32157,-46.51752 85.77544,-84.46031 -18.2472,-55.385904 -87.68025,8.10408 -96.12824,43.63451 -14.02718,51.48119 -65.15074,67.20631 -106.08338,91.55228 -37.7774,24.83474 -86.65564,48.99649 -100.44141,94.95512 11.15297,28.2627 -48.2232,39.68869 -66.15464,63.23757 -19.8215,14.83576 -33.08269,22.85744 -13.7406,-6.58497 2.48316,-20.94789 67.51747,-60.0124 26.50095,-64.38023 -52.56032,44.62699 -118.75924,73.78418 -186.7522,85.96877 6.09055,-25.70791 52.63971,-74.50678 68.5465,-111.5697 14.23774,-47.20337 61.9821,-61.61525 98.44469,-86.77329 C 407.77267,176.9697 460.63979,137.31191 500.09412,86.156217 535.75472,31.887753 456.23726,31.748465 430.33595,61.749488 363.43553,106.68556 317.24338,175.21552 273.77423,241.51119 242.26166,268.37217 199.78649,278.77078 162.53244,295.97075 135.78849,306.62884 107.24688,306.47963 79,305 Z M 497,54 c -15.00718,53.1929 -70.98271,81.18137 -108.8034,117.7337 -22.96949,14.96404 -71.50275,61.26438 -82.93966,50.34224 C 347.88765,161.64044 392.45005,95.978837 460.54806,62.10453 472.04837,57.197431 484.43371,53.994221 497,54 Z M 640,172 C 658.1891,141.69833 674.3731,97.672212 715.58802,95.82938 712.55317,124.86448 665.47561,154.62842 640,172 Z m 415,59 c 8.215,36.64273 -19.1422,68.4873 -42.5228,93.6195 -18.48227,15.13893 -54.99793,48.06053 -69.63596,37.41635 27.20274,-48.53691 60.02336,-97.31381 106.90556,-128.73351 z m -433,114 -1,1 z m -89,3 c -28.41896,61.96708 -53.84253,126.44846 -89.86463,184.80347 -23.83401,33.95104 -51.87791,73.65596 -95.26435,81.49337 C 301.84346,595.1349 333.60049,523.15878 353.50711,490.1514 396.55565,425.72173 465.32106,382.52611 533,348 Z M 139,436 C 131.88917,470.00917 47.355139,509.61728 86.849191,449.69308 101.87227,438.58271 121.44958,439.27362 139,436 Z" stroke="black" stroke-width="4" stroke-linecap="round" data-duration="600"
       id="path2" />
    <path
       d="m 1219,292 c 12.1301,-13.87859 32.0407,-21.20026 39.0723,-39.24063 -0.5351,-21.95938 -32.5321,-14.97423 -46.2984,-9.01535 -33.459,11.56368 -65.5933,26.66587 -96.6689,43.52558 -8.8577,3.25274 10.774,-10.81204 13.751,-15.38915 14.2735,-7.07175 9.0615,-35.885 -7.6228,-22.42352 -13.5364,18.59152 -37.5581,29.63198 -44.4948,52.71002 -2.3034,25.64828 29.1008,15.29972 40.2159,4.426 33.9364,-19.47693 68.928,-38.02194 106.4724,-49.4745 18.5838,-4.09199 -10.3266,12.74923 -15.2782,18.55377 -11.0692,9.44108 -25.8059,20.63355 -23.8612,36.97761 9.723,17.39855 33.1671,3.11629 45.6565,-3.68944 36.0633,-21.14697 68.6135,-49.42134 108.8015,-62.76095 15.3228,-4.14421 -6.2956,14.88155 -7.7515,22.44286 -9.807,14.97009 -6.2143,37.11136 9.8154,46.20476 21.0727,12.81042 47.0458,5.68085 69.6583,1.73054 29.0343,-6.6921 57.2775,-16.56588 84.1585,-29.3671 9.9312,-0.90912 16.2824,-4.8194 19.1731,-14.41721 4.3623,-5.00552 -2.3196,-10.01509 -3.8184,-15.02276 -0.9588,-10.29949 -25.1578,-9.09913 -22.2852,-0.13403 5.5937,4.03419 26.0811,5.7545 8.9807,9.85994 -39.1285,13.9863 -77.8022,31.91284 -119.8915,34.45837 -13.2359,4.31137 -41.3444,0.84156 -32.6657,-19.03129 6.3131,-17.06905 21.7376,-28.53714 29.5685,-44.56274 4.3189,-25.52057 -29.2208,-15.23098 -41.8651,-8.0437 -34.1466,13.75516 -65.8364,32.68041 -96.1792,53.35922 -5.3253,3.18795 -10.8324,6.11667 -16.6432,8.3237 z m 0,0 c -1.2409,1.24089 -0.9922,0.99221 0,0 z" stroke="black" stroke-width="4" stroke-linecap="round" data-duration="300"
       id="path5" />
    <path
       d="m 390,312 c 1.16116,-9.84094 -9.29773,-21.75931 -16.96759,-9.58487 -2.93777,4.66318 3.21469,12.5152 7.95679,13.07791 3.1907,0.37863 6.23684,-2.29071 9.0108,-3.49304" stroke="black" stroke-width="4" stroke-linecap="round" data-duration="100"
       id="path6" />
    <path
       d="m 676,226 c 1.26349,-3.79794 3.56342,-7.74704 2.13116,-11.82562 -1.72033,-4.89887 -10.30041,-8.7988 -14.52777,-4.57099 C 655.73395,217.47363 669.45764,225.9408 676,226" stroke="black" stroke-width="4" stroke-linecap="round" data-duration="50"
       id="path3" />
    <path
       d="m 1134.0386,208.53705 c -4.343,0.62994 -11.5463,5.46441 -13.105,9.63656 -2.1423,5.73423 2.8924,13.06507 9.0671,12.50461 11.5959,-1.05252 18.7891,-24.28085 4.0379,-22.14117" stroke="black" stroke-width="4" stroke-linecap="round" data-duration="25"
       id="path4" />
</svg>
