<svg width="345.614" height="113.325" viewBox="0 0 345.614 113.325" xmlns="http://www.w3.org/2000/svg"><g id="svgGroup" stroke-linecap="round" fill-rule="nonzero" font-size="9pt" stroke="#000000" stroke-width="0.5" fill="#000000" style="stroke:#000000;stroke-width:0.5;fill:#000000"><path d="M 29.55 62.25 L 30.15 61.5 Q 31.5 60 33.45 58.163 Q 35.4 56.325 36.6 55.275 L 37.875 54.225 Q 39 53.55 39.375 53.55 A 0.606 0.606 0 0 1 39.975 54.3 Q 39.975 55.2 38.775 57.563 Q 37.575 59.925 36.225 62.063 Q 34.875 64.2 33.413 66.45 A 170.719 170.719 0 0 1 32.027 68.561 A 2.93 2.93 0 0 1 31.875 68.775 Q 30.975 70.2 29.175 70.2 A 98.657 98.657 0 0 1 22.662 70.564 A 243.03 243.03 0 0 1 15.825 70.65 L 1.425 70.425 Q 0 70.275 0 69.3 L 0.15 68.7 Q 5.775 60.15 13.125 51.675 A 251.225 251.225 0 0 1 21.697 42.238 A 149.913 149.913 0 0 1 26.25 37.687 Q 32.025 32.175 38.475 25.988 A 299.163 299.163 0 0 0 44.081 20.484 A 113.595 113.595 0 0 0 48 16.35 Q 48.375 15.975 48.375 15.6 Q 48.375 14.925 45.15 14.925 Q 42.15 14.925 39.188 15.825 Q 36.225 16.725 34.163 18.038 Q 32.1 19.35 30.45 20.663 Q 28.8 21.975 28.05 22.875 L 27.225 23.775 Q 26.4 24.3 25.95 24.3 Q 25.35 24.3 25.35 23.625 A 6.393 6.393 0 0 1 26.347 21.086 A 44.876 44.876 0 0 1 28.5 17.7 A 24.786 24.786 0 0 1 31.474 13.997 A 3.606 3.606 0 0 1 33.225 12.9 A 37.667 37.667 0 0 1 36.742 12.644 Q 39.026 12.555 42.445 12.532 A 370.374 370.374 0 0 1 44.85 12.525 Q 46.05 12.525 48.563 12.6 A 247.166 247.166 0 0 0 51.255 12.67 A 25.725 25.725 0 0 0 51.675 12.675 Q 52.575 12.675 53.25 12.3 L 53.55 12.15 Q 56.25 10.425 57.15 10.35 Q 57.6 10.35 57.6 10.8 A 6.356 6.356 0 0 1 56.021 14.265 A 19.174 19.174 0 0 1 55.5 14.925 Q 51 20.55 44.55 27.338 A 562.059 562.059 0 0 1 35.655 36.506 A 367.773 367.773 0 0 1 33.038 39.113 A 157.439 157.439 0 0 0 24.916 47.817 A 234.747 234.747 0 0 0 21.975 51.263 Q 15.975 58.425 11.475 65.7 Q 10.95 66.525 10.95 67.05 A 1.767 1.767 0 0 0 12.89 68.261 A 15.454 15.454 0 0 0 15.15 68.4 Q 17.7 68.4 20.213 67.688 Q 22.725 66.975 24.45 65.963 Q 26.175 64.95 27.525 63.938 Q 28.875 62.925 29.55 62.25 Z" id="0"/><path d="M 37.65 71.25 L 36.675 71.7 A 0.632 0.632 0 0 1 36 70.95 A 9.093 9.093 0 0 1 36.759 68.095 A 35.876 35.876 0 0 1 37.35 66.675 Q 38.7 63.6 40.05 61.125 L 41.4 58.65 L 53.1 37.65 A 684.495 684.495 0 0 1 59.634 26.344 Q 66.719 14.371 71.874 7.048 A 112.057 112.057 0 0 1 74.85 3 A 14.43 14.43 0 0 1 77.2 0.371 A 1.45 1.45 0 0 1 78 0 Q 78.45 0 78.45 0.6 Q 78.45 2.175 76.05 7.05 Q 67.035 23.3 62.24 31.901 A 3234.566 3234.566 0 0 1 59.7 36.45 Q 56.925 41.4 54.675 45.263 Q 52.425 49.125 51.488 50.7 Q 50.55 52.275 49.875 53.438 Q 49.2 54.6 48.825 55.425 Q 48.75 55.65 48.75 55.875 Q 48.75 56.25 48.9 56.25 Q 49.05 56.25 49.5 55.8 Q 62.056 41.842 68.161 38.317 A 7.282 7.282 0 0 1 71.55 37.125 Q 72.6 37.125 72.6 38.175 Q 72.6 38.475 72.3 39.488 A 26.079 26.079 0 0 1 71.217 42.166 A 113.832 113.832 0 0 1 70.575 43.575 Q 69.15 46.65 66.825 50.4 Q 65.4 52.5 63.225 56.4 A 29.495 29.495 0 0 0 61.356 60.22 A 4.049 4.049 0 0 0 61.05 61.5 Q 61.05 62.175 61.725 62.175 Q 61.95 62.175 62.363 61.988 Q 62.775 61.8 63.3 61.35 Q 63.825 60.9 64.238 60.525 Q 64.65 60.15 65.438 59.438 Q 66.225 58.725 66.6 58.425 A 140.924 140.924 0 0 0 71.329 53.404 A 318.703 318.703 0 0 0 74.925 49.35 Q 75.15 49.125 75.3 49.125 Q 75.45 49.125 75.45 49.425 Q 75.45 50.85 74.325 52.2 Q 68.775 58.35 64.5 62.475 A 95.196 95.196 0 0 1 58.826 67.383 Q 54.476 70.8 52.65 70.8 Q 51.525 70.8 51.525 69.375 Q 51.525 66.675 54.6 61.163 Q 57.675 55.65 60.713 50.888 A 67.21 67.21 0 0 0 62.991 47.109 A 5.513 5.513 0 0 0 63.75 45.3 Q 63.75 44.85 63.3 44.85 A 4.894 4.894 0 0 0 60.747 46.194 Q 59.027 47.582 56.475 50.4 A 196.002 196.002 0 0 0 49.349 58.676 A 125.37 125.37 0 0 0 48 60.375 A 116.004 116.004 0 0 1 42.832 66.478 A 59.749 59.749 0 0 1 41.362 68.025 A 34.335 34.335 0 0 1 38.495 70.7 A 4.067 4.067 0 0 1 37.65 71.25 Z" id="1"/><path d="M 96.3 48.675 L 95.25 50.1 Q 93.675 54.525 90.413 59.288 Q 87.15 64.05 82.463 67.65 A 16.166 16.166 0 0 1 74.88 71.158 A 10.471 10.471 0 0 1 73.5 71.25 A 5.165 5.165 0 0 1 68.182 65.176 A 15.167 15.167 0 0 1 68.175 64.725 A 24.088 24.088 0 0 1 70.845 54.312 A 38.735 38.735 0 0 1 71.925 52.238 Q 75.675 45.525 81.638 40.763 A 21.044 21.044 0 0 1 90.567 36.279 A 14.416 14.416 0 0 1 93.375 36 Q 97.575 36 97.575 39.3 A 9.229 9.229 0 0 1 96.246 43.335 A 24.736 24.736 0 0 1 95.775 44.175 Q 95.7 44.25 95.7 44.4 Q 95.7 44.55 95.85 44.55 Q 98.625 43.425 100.575 43.35 Q 101.25 43.5 101.25 43.8 Q 101.25 44.25 100.65 44.85 Q 99.825 45.675 98.213 47.025 A 60.324 60.324 0 0 0 96.396 48.584 A 3.719 3.719 0 0 0 96.3 48.675 Z M 93.45 45.15 Q 94.05 42.525 94.05 41.1 Q 94.05 37.95 91.95 37.95 A 6.537 6.537 0 0 0 87.974 39.854 A 26.094 26.094 0 0 0 84.675 43.35 Q 80.325 48.75 77.213 55.5 A 40.893 40.893 0 0 0 74.614 62.511 A 15.223 15.223 0 0 0 74.1 66.15 Q 74.1 69 76.125 69 A 6.298 6.298 0 0 0 80.173 66.901 A 26.981 26.981 0 0 0 83.663 62.7 Q 88.05 56.4 88.95 50.025 Q 88.875 49.875 88.875 49.575 A 3.996 3.996 0 0 1 91.352 46.394 A 14.252 14.252 0 0 1 92.775 45.675 Q 93.375 45.45 93.45 45.15 Z" id="2"/><path d="M 118.125 44.7 L 117.075 45.075 A 45.619 45.619 0 0 0 111.693 49.772 A 95.391 95.391 0 0 0 108.825 52.763 Q 104.025 57.975 100.95 61.95 L 97.875 65.85 Q 96.9 67.275 96.15 68.175 Q 95.4 69.075 94.013 69.938 Q 92.625 70.8 91.2 70.8 A 0.802 0.802 0 0 1 90.15 70.2 Q 90.15 69.6 91.575 66.713 Q 93 63.825 94.425 61.2 L 95.85 58.65 L 103.2 45.75 Q 104.325 43.875 105.038 42.863 Q 105.75 41.85 107.025 40.313 Q 108.3 38.775 109.763 38.025 Q 111.225 37.275 112.875 37.125 Q 113.475 37.125 113.475 37.65 Q 113.475 38.1 113.25 38.4 A 130.054 130.054 0 0 0 111.066 41.981 A 418.879 418.879 0 0 0 107.962 47.325 Q 104.4 53.55 103.425 55.425 Q 103.2 55.875 103.2 56.1 Q 103.2 56.25 103.35 56.25 Q 103.5 56.25 104.1 55.8 Q 105.525 54.15 107.813 51.675 Q 110.1 49.2 115.575 44.213 A 61.251 61.251 0 0 1 121.524 39.345 A 23.292 23.292 0 0 1 124.575 37.5 Q 125.4 37.125 126.15 37.125 Q 127.2 37.125 127.2 38.325 A 17.592 17.592 0 0 1 125.799 42.371 Q 124.702 44.786 122.79 48.095 A 131.77 131.77 0 0 1 121.425 50.4 A 156.546 156.546 0 0 0 117.952 56.355 Q 116.63 58.77 116.092 60.131 A 4.276 4.276 0 0 0 115.725 61.5 Q 115.725 62.1 116.25 62.1 Q 116.625 62.1 117.113 61.838 Q 117.6 61.575 118.2 61.088 Q 118.8 60.6 119.213 60.225 Q 119.625 59.85 120.3 59.213 Q 120.975 58.575 121.125 58.425 A 140.924 140.924 0 0 0 125.854 53.404 A 318.703 318.703 0 0 0 129.45 49.35 Q 129.675 49.125 129.825 49.125 Q 129.975 49.125 129.975 49.425 Q 129.975 50.85 128.85 52.2 Q 123.3 58.35 119.025 62.475 Q 112.622 68.495 109.413 70.122 A 4.584 4.584 0 0 1 107.475 70.725 A 1.161 1.161 0 0 1 106.2 69.375 Q 106.2 68.55 106.575 67.313 Q 106.95 66.075 107.513 64.838 Q 108.075 63.6 108.6 62.55 Q 109.125 61.5 109.65 60.6 Q 110.175 59.7 110.175 59.625 A 120.624 120.624 0 0 1 112.495 55.68 A 282.19 282.19 0 0 1 113.55 53.963 A 227.557 227.557 0 0 0 116.798 48.573 A 110.498 110.498 0 0 0 117.15 47.962 A 17.119 17.119 0 0 0 118.426 45.422 A 1.199 1.199 0 0 0 118.5 45.075 Q 118.5 44.7 118.125 44.7 Z" id="3"/><path d="M 132.375 71.925 L 139.95 57.225 Q 140.25 56.625 140.25 56.4 L 139.5 56.925 Q 137.175 59.625 134.138 62.475 A 140.378 140.378 0 0 1 129.712 66.486 A 59.619 59.619 0 0 1 129.225 66.9 L 127.35 68.4 A 13.367 13.367 0 0 1 123.612 70.5 A 3.25 3.25 0 0 1 122.7 70.65 Q 121.2 70.65 121.2 68.475 Q 121.2 63.075 125.175 55.725 Q 129.15 48.375 135.488 42.825 Q 141.825 37.275 147.525 37.275 Q 148.65 37.275 149.438 37.538 Q 150.225 37.8 150.563 38.025 Q 150.9 38.25 150.975 38.25 Q 151.125 38.25 151.35 38.025 Q 151.8 37.425 152.513 36.525 Q 153.225 35.625 154.95 34.088 A 4.876 4.876 0 0 1 157.721 32.55 A 1.405 1.405 0 0 1 157.725 32.55 Q 158.25 32.55 158.25 33.3 Q 158.25 34.35 157.2 36.45 Q 151.056 47.762 148.605 52.216 A 316.636 316.636 0 0 1 147.45 54.3 Q 146.85 55.425 144.713 59.138 Q 142.575 62.85 141.675 64.425 Q 146.4 60.6 149.475 57.825 Q 152.775 54.375 157.2 49.35 Q 157.425 49.125 157.575 49.125 Q 157.725 49.125 157.725 49.425 Q 157.725 50.85 156.6 52.2 A 661.081 661.081 0 0 1 151.051 58.19 A 387.419 387.419 0 0 1 150.9 58.35 Q 147.953 61.437 140.674 67.15 A 297.154 297.154 0 0 1 139.65 67.95 L 137.7 71.55 Q 124.37 96.069 118.672 104.814 A 78.609 78.609 0 0 1 117.75 106.2 Q 117.225 107.025 116.4 108.188 Q 115.575 109.35 113.7 111.338 A 6.16 6.16 0 0 1 111.014 113.289 A 1.483 1.483 0 0 1 110.7 113.325 A 2.059 2.059 0 0 1 109.122 111.149 A 16.654 16.654 0 0 1 108.9 108.15 A 28.182 28.182 0 0 1 111.698 96.523 A 47.48 47.48 0 0 1 114.375 91.5 A 63.135 63.135 0 0 1 122.62 80.925 A 107.501 107.501 0 0 1 132.375 71.925 Z M 114 103.8 L 114.525 103.05 A 249.973 249.973 0 0 0 119.714 94.609 Q 124.425 86.634 130.425 75.525 A 87.033 87.033 0 0 0 120.869 85.048 A 52.847 52.847 0 0 0 116.25 91.35 Q 115.65 92.25 114.825 93.713 Q 114 95.175 112.575 98.738 A 17.516 17.516 0 0 0 111.156 104.395 A 8.461 8.461 0 0 0 111.15 104.7 Q 111.15 105.975 111.6 105.975 Q 111.975 105.975 112.725 105.263 Q 113.475 104.55 114 103.8 Z M 149.925 39.75 Q 150 39.675 150 39.45 Q 150 38.925 148.8 38.925 A 8.061 8.061 0 0 0 144.376 40.741 A 27.888 27.888 0 0 0 141.075 43.575 Q 136.35 48.225 132.9 53.775 A 33.254 33.254 0 0 0 130.11 59.093 A 8.26 8.26 0 0 0 129.45 61.95 Q 129.45 63 130.35 63 Q 131.175 63 132.45 61.95 Q 133.575 60.975 135.488 59.213 Q 137.4 57.45 142.05 51.675 Q 146.7 45.9 149.925 39.75 Z" id="4"/><path d="M 154.8 51.15 L 156.45 48.75 Q 157.5 47.25 158.55 47.25 Q 159.375 47.25 159.375 48.075 L 159.15 48.825 Q 156.45 55.65 156.45 60.6 Q 156.45 64.575 158.213 67.088 Q 159.975 69.6 163.725 69.6 Q 169.35 69.6 172.8 64.688 Q 176.25 59.775 176.25 54.075 Q 176.25 49.2 172.913 40.163 A 101.4 101.4 0 0 1 170.631 33.367 Q 169.773 30.4 169.612 28.646 A 8.205 8.205 0 0 1 169.575 27.9 Q 169.575 20.925 175.538 16.688 Q 181.5 12.45 188.625 12.45 Q 189.9 12.45 191.138 12.6 Q 192.375 12.75 193.875 13.088 Q 195.375 13.425 196.275 14.175 Q 197.175 14.925 197.175 16.05 A 7.875 7.875 0 0 1 196.182 19.105 A 32.601 32.601 0 0 1 195.075 21.15 A 64.984 64.984 0 0 1 192.012 25.997 A 26.016 26.016 0 0 1 191.55 26.625 Q 191.025 27 190.65 27 Q 190.125 27 190.125 26.1 A 44.035 44.035 0 0 1 190.47 21.277 A 93.2 93.2 0 0 1 190.575 20.4 A 6.628 6.628 0 0 0 189.193 15.713 A 4.11 4.11 0 0 0 186.075 14.55 Q 182.25 14.55 179.588 17.175 Q 176.925 19.8 176.925 23.55 A 26.04 26.04 0 0 0 177.968 30.13 A 68.693 68.693 0 0 0 180.412 37.35 A 66.12 66.12 0 0 1 183.082 45.4 A 23.701 23.701 0 0 1 183.9 51 Q 183.9 60 176.813 65.813 Q 169.725 71.625 160.875 71.625 Q 159.375 71.625 157.275 71.325 Q 155.175 71.025 152.85 70.388 Q 150.525 69.75 148.913 68.513 Q 147.3 67.275 147.3 65.7 Q 147.3 65.1 147.525 64.575 Q 148.725 61.575 150.938 57.6 A 105.207 105.207 0 0 1 154.379 51.792 A 53.544 53.544 0 0 1 154.8 51.15 Z" id="5"/><path d="M 181.65 71.25 L 180.675 71.7 A 0.632 0.632 0 0 1 180 70.95 A 9.093 9.093 0 0 1 180.759 68.095 A 35.876 35.876 0 0 1 181.35 66.675 Q 182.7 63.6 184.05 61.125 L 185.4 58.65 L 197.1 37.65 A 684.495 684.495 0 0 1 203.634 26.344 Q 210.719 14.371 215.874 7.048 A 112.057 112.057 0 0 1 218.85 3 A 14.43 14.43 0 0 1 221.2 0.371 A 1.45 1.45 0 0 1 222 0 Q 222.45 0 222.45 0.6 Q 222.45 2.175 220.05 7.05 Q 211.035 23.3 206.24 31.901 A 3234.566 3234.566 0 0 1 203.7 36.45 Q 200.925 41.4 198.675 45.263 Q 196.425 49.125 195.488 50.7 Q 194.55 52.275 193.875 53.438 Q 193.2 54.6 192.825 55.425 Q 192.75 55.65 192.75 55.875 Q 192.75 56.25 192.9 56.25 Q 193.05 56.25 193.5 55.8 Q 206.056 41.842 212.161 38.317 A 7.282 7.282 0 0 1 215.55 37.125 Q 216.6 37.125 216.6 38.175 Q 216.6 38.475 216.3 39.488 A 26.079 26.079 0 0 1 215.217 42.166 A 113.832 113.832 0 0 1 214.575 43.575 Q 213.15 46.65 210.825 50.4 Q 209.4 52.5 207.225 56.4 A 29.495 29.495 0 0 0 205.356 60.22 A 4.049 4.049 0 0 0 205.05 61.5 Q 205.05 62.175 205.725 62.175 Q 205.95 62.175 206.363 61.988 Q 206.775 61.8 207.3 61.35 Q 207.825 60.9 208.238 60.525 Q 208.65 60.15 209.438 59.438 Q 210.225 58.725 210.6 58.425 A 140.924 140.924 0 0 0 215.329 53.404 A 318.703 318.703 0 0 0 218.925 49.35 Q 219.15 49.125 219.3 49.125 Q 219.45 49.125 219.45 49.425 Q 219.45 50.85 218.325 52.2 Q 212.775 58.35 208.5 62.475 A 95.196 95.196 0 0 1 202.826 67.383 Q 198.476 70.8 196.65 70.8 Q 195.525 70.8 195.525 69.375 Q 195.525 66.675 198.6 61.163 Q 201.675 55.65 204.713 50.888 A 67.21 67.21 0 0 0 206.991 47.109 A 5.513 5.513 0 0 0 207.75 45.3 Q 207.75 44.85 207.3 44.85 A 4.894 4.894 0 0 0 204.747 46.194 Q 203.027 47.582 200.475 50.4 A 196.002 196.002 0 0 0 193.349 58.676 A 125.37 125.37 0 0 0 192 60.375 A 116.004 116.004 0 0 1 186.832 66.478 A 59.749 59.749 0 0 1 185.362 68.025 A 34.335 34.335 0 0 1 182.495 70.7 A 4.067 4.067 0 0 1 181.65 71.25 Z" id="6"/><path d="M 239.479 50.454 A 424.109 424.109 0 0 0 240.45 49.35 Q 240.675 49.125 240.825 49.125 Q 240.975 49.125 240.975 49.425 Q 240.975 50.85 239.85 52.2 Q 234.3 58.35 230.025 62.475 Q 226.875 65.625 222.525 68.513 A 18.511 18.511 0 0 1 217.098 71.159 A 7.22 7.22 0 0 1 215.325 71.4 A 3.536 3.536 0 0 1 211.89 67.216 A 12.079 12.079 0 0 1 211.875 66.6 A 26.771 26.771 0 0 1 215.187 54.253 A 43.133 43.133 0 0 1 217.762 49.95 A 34.009 34.009 0 0 1 226.726 40.646 A 24.413 24.413 0 0 1 231.375 38.175 Q 234.6 36.825 237.225 36.825 Q 240.15 36.825 240.15 39.15 A 10.115 10.115 0 0 1 237.807 45.005 A 29.342 29.342 0 0 1 234 49.125 Q 227.85 54.75 220.2 57.675 Q 219.9 57.75 219.675 58.2 Q 218.55 61.275 218.55 63.675 Q 218.55 66.375 220.575 66.375 A 8.733 8.733 0 0 0 225.119 64.656 A 30.272 30.272 0 0 0 229.05 61.5 Q 232.761 58.069 239.479 50.454 Z M 230.7 40.65 L 230.325 40.95 A 24.784 24.784 0 0 0 226.965 44.785 A 70.341 70.341 0 0 0 224.513 48.338 Q 221.025 53.7 221.025 55.2 Q 221.025 55.5 221.175 55.5 Q 221.625 55.5 223.163 54.75 A 15.229 15.229 0 0 0 226.228 52.486 A 48.472 48.472 0 0 0 227.587 51.225 Q 230.475 48.45 232.425 44.325 Q 233.325 42.45 233.325 41.025 Q 233.325 39.825 232.575 39.825 Q 232.125 39.825 231.563 40.088 Q 231 40.35 230.7 40.65 Z" id="7"/><path d="M 257.55 44.7 L 256.5 45.075 A 45.619 45.619 0 0 0 251.118 49.772 A 95.391 95.391 0 0 0 248.25 52.763 Q 243.45 57.975 240.375 61.95 L 237.3 65.85 Q 236.325 67.275 235.575 68.175 Q 234.825 69.075 233.438 69.938 Q 232.05 70.8 230.625 70.8 A 0.802 0.802 0 0 1 229.575 70.2 Q 229.575 69.6 231 66.713 Q 232.425 63.825 233.85 61.2 L 235.275 58.65 L 242.625 45.75 Q 243.75 43.875 244.463 42.863 Q 245.175 41.85 246.45 40.313 Q 247.725 38.775 249.188 38.025 Q 250.65 37.275 252.3 37.125 Q 252.9 37.125 252.9 37.65 Q 252.9 38.1 252.675 38.4 A 130.054 130.054 0 0 0 250.491 41.981 A 418.879 418.879 0 0 0 247.387 47.325 Q 243.825 53.55 242.85 55.425 Q 242.625 55.875 242.625 56.1 Q 242.625 56.25 242.775 56.25 Q 242.925 56.25 243.525 55.8 Q 244.95 54.15 247.238 51.675 Q 249.525 49.2 255 44.213 A 61.251 61.251 0 0 1 260.949 39.345 A 23.292 23.292 0 0 1 264 37.5 Q 264.825 37.125 265.575 37.125 Q 266.625 37.125 266.625 38.325 A 17.592 17.592 0 0 1 265.224 42.371 Q 264.127 44.786 262.215 48.095 A 131.77 131.77 0 0 1 260.85 50.4 A 156.546 156.546 0 0 0 257.377 56.355 Q 256.055 58.77 255.517 60.131 A 4.276 4.276 0 0 0 255.15 61.5 Q 255.15 62.1 255.675 62.1 Q 256.05 62.1 256.538 61.838 Q 257.025 61.575 257.625 61.088 Q 258.225 60.6 258.638 60.225 Q 259.05 59.85 259.725 59.213 Q 260.4 58.575 260.55 58.425 A 140.924 140.924 0 0 0 265.279 53.404 A 318.703 318.703 0 0 0 268.875 49.35 Q 269.1 49.125 269.25 49.125 Q 269.4 49.125 269.4 49.425 Q 269.4 50.85 268.275 52.2 Q 262.725 58.35 258.45 62.475 Q 252.047 68.495 248.838 70.122 A 4.584 4.584 0 0 1 246.9 70.725 A 1.161 1.161 0 0 1 245.625 69.375 Q 245.625 68.55 246 67.313 Q 246.375 66.075 246.938 64.838 Q 247.5 63.6 248.025 62.55 Q 248.55 61.5 249.075 60.6 Q 249.6 59.7 249.6 59.625 A 120.624 120.624 0 0 1 251.92 55.68 A 282.19 282.19 0 0 1 252.975 53.963 A 227.557 227.557 0 0 0 256.223 48.573 A 110.498 110.498 0 0 0 256.575 47.962 A 17.119 17.119 0 0 0 257.851 45.422 A 1.199 1.199 0 0 0 257.925 45.075 Q 257.925 44.7 257.55 44.7 Z" id="8"/><path d="M 311.4 14.25 L 313.05 13.125 Q 316.725 11.325 319.875 11.325 Q 322.125 11.325 322.125 12.075 Q 322.125 12.6 320.963 13.5 Q 319.8 14.4 318.488 15.15 Q 317.175 15.9 315.638 16.725 A 248.442 248.442 0 0 1 314.009 17.595 A 4.319 4.319 0 0 1 313.95 17.625 Q 302.175 24.6 290.55 35.7 Q 290.25 43.8 290.25 47.85 Q 290.25 65.475 293.775 67.05 Q 294.375 67.275 294.375 67.95 A 3.236 3.236 0 0 1 292.288 70.365 A 12.633 12.633 0 0 1 291.6 70.725 A 12.603 12.603 0 0 1 287.777 72.054 A 3.591 3.591 0 0 1 287.4 72.075 Q 285.675 72.075 285.375 70.8 A 52.622 52.622 0 0 1 284.029 62.29 A 115.404 115.404 0 0 1 283.65 52.425 Q 283.65 47.4 283.875 42.45 Q 280.125 46.425 276.788 50.475 A 231.419 231.419 0 0 0 273.067 55.087 A 74.395 74.395 0 0 0 271.95 56.55 L 270.525 58.65 Q 261.542 70.546 258.355 72.815 A 2.324 2.324 0 0 1 257.175 73.35 Q 256.575 73.35 256.575 72.3 Q 256.575 69.45 258.225 66.038 Q 259.875 62.625 262.088 59.925 Q 264.3 57.225 265.95 55.5 A 28.155 28.155 0 0 1 267.974 53.517 A 2.969 2.969 0 0 1 268.125 53.4 Q 274.125 48.375 284.1 38.925 A 373.008 373.008 0 0 1 284.952 29.019 Q 285.79 20.74 286.725 16.95 Q 287.4 14.7 288.938 13.013 Q 290.475 11.325 291.525 11.325 Q 292.35 11.325 292.35 12.525 Q 292.35 12.975 292.275 13.65 Q 291.3 22.575 290.7 32.625 Q 298.5 25.05 304.088 20.175 A 174.748 174.748 0 0 1 308.652 16.303 Q 310.524 14.783 311.4 14.25 Z" id="9"/><path d="M 298.35 58.2 L 299.7 55.8 A 470.839 470.839 0 0 1 304.156 48.149 Q 306.049 44.979 307.447 42.81 A 83.487 83.487 0 0 1 308.325 41.475 Q 309.6 39.6 311.588 38.288 Q 313.575 36.975 315.3 36.975 Q 315.9 36.975 315.9 37.5 Q 315.9 37.875 315.375 38.925 Q 314.475 40.575 310.95 46.8 Q 307.659 52.612 306.852 54.109 A 29.635 29.635 0 0 0 306.75 54.3 A 44.119 44.119 0 0 0 304.351 59.021 A 7.245 7.245 0 0 0 303.675 61.5 Q 303.675 62.175 304.125 62.175 Q 304.875 62.175 308.925 58.425 A 140.924 140.924 0 0 0 313.654 53.404 A 318.703 318.703 0 0 0 317.25 49.35 Q 317.475 49.125 317.625 49.125 Q 317.775 49.125 317.775 49.425 Q 317.775 50.85 316.65 52.2 Q 311.1 58.35 306.825 62.475 Q 300.509 68.413 297.457 70.077 A 4.319 4.319 0 0 1 295.575 70.725 Q 294.3 70.725 294.3 69 Q 294.3 67.275 295.65 63.975 Q 297 60.675 298.35 58.2 Z M 316.8 32.7 Q 314.925 32.7 314.925 30.45 Q 314.925 28.35 316.5 26.213 Q 318.075 24.075 319.95 24.075 Q 322.2 24.075 322.2 26.625 Q 322.2 28.725 320.475 30.713 Q 318.75 32.7 316.8 32.7 Z" id="10"/><path d="M 325.725 59.775 L 327.075 57.225 L 329.4 53.25 A 0.174 0.174 0 0 0 329.25 53.025 Q 329.1 53.025 328.875 53.25 Q 326.1 56.475 323.1 59.513 A 161.079 161.079 0 0 1 319.402 63.162 A 53.568 53.568 0 0 1 318.525 63.975 L 316.875 65.4 Q 311.4 70.594 309.078 70.927 A 2.139 2.139 0 0 1 308.775 70.95 Q 307.725 70.95 307.725 69.6 A 11.617 11.617 0 0 1 308.606 65.947 A 34.134 34.134 0 0 1 308.962 65.025 Q 310.2 61.95 311.475 59.55 L 312.675 57.225 A 316.048 316.048 0 0 1 316.936 49.491 Q 318.913 46.034 320.387 43.767 A 40.659 40.659 0 0 1 321.975 41.475 Q 323.475 39.525 325.65 38.213 Q 327.825 36.9 329.025 36.9 Q 329.775 36.9 329.775 37.425 Q 329.775 37.725 329.475 38.25 A 41.974 41.974 0 0 1 328.631 39.647 A 846.086 846.086 0 0 1 326.4 43.237 A 151.281 151.281 0 0 0 322.143 50.436 A 84.654 84.654 0 0 0 321.675 51.3 A 189.951 189.951 0 0 0 318.659 57.02 Q 316.725 60.881 316.725 61.725 Q 316.725 62.25 317.175 62.25 Q 317.85 62.25 319.5 60.9 A 78.364 78.364 0 0 0 326.664 53.742 A 132.683 132.683 0 0 0 330.225 49.575 A 57.178 57.178 0 0 0 335.881 42.258 A 92.407 92.407 0 0 0 336.975 40.575 Q 339.375 36.9 343.35 36.9 Q 344.025 36.9 344.025 37.5 L 343.425 38.925 Q 342.375 40.8 338.738 47.138 A 7726.645 7726.645 0 0 1 336.15 51.642 Q 335.19 53.312 334.784 54.014 A 119.272 119.272 0 0 1 334.575 54.375 A 45.518 45.518 0 0 0 332.176 59.075 A 7.091 7.091 0 0 0 331.5 61.5 A 0.523 0.523 0 0 0 331.95 62.175 Q 332.7 62.175 336.75 58.425 A 140.924 140.924 0 0 0 341.479 53.404 A 318.703 318.703 0 0 0 345.075 49.35 Q 345.3 49.125 345.45 49.125 Q 345.6 49.125 345.6 49.425 Q 345.6 50.85 344.475 52.2 Q 338.925 58.35 334.65 62.475 Q 331.725 65.25 328.088 68.025 A 18.914 18.914 0 0 1 324.206 70.457 A 3.796 3.796 0 0 1 322.8 70.8 Q 321.675 70.8 321.675 69.225 A 8.342 8.342 0 0 1 322.419 66.732 A 43.086 43.086 0 0 1 323.025 65.325 Q 324.375 62.325 325.725 59.775 Z" id="11"/></g></svg>